# xmcd
#
# Track frame offsets:
#	150
#	15085
#	29323
#	44342
#	57828
#	71398
#	84689
#	98147
#	111772
#	123586
#	136320
#	148190
#	159113
#	171819
#	185584
#	212667
#	224537
#	236407
#	252262
#	266389
#	278761
#	291327
#	302974
#	317436
#	332733
#
# Disc length: 4589 seconds
#
# Revision: 5
# Processed by: cddbd v1.5.2PL0 Copyright (c) Steve Scherf et al.
# Submitted via: EZCDAudioConverter 7.0.9.1
#
DISCID=6811eb19
DTITLE=Blind Willie Johnson, Blind Gary Davis, The Golden Gate Quartet,Mahalia
DTITLE=Jackson and various - Triomphes du Blues 18, Gospels and Evangelists
DYEAR=2001
DGENRE=Blues
TTITLE0=Blind Willie Johnson - Dark was the night - 1927
TTITLE1=Blind Willie Johnson - It's nobody's fault but mine - 1927
TTITLE2=Blind Willie Johnson - Mother's children have a hard time - 1927
TTITLE3=Blind Willie Johnson - God moves on the water - 1929
TTITLE4=Blind Gary Davis - Cross and evil woman blues - 1940
TTITLE5=Blind Gary Davis - I saw the light - 1940
TTITLE6=Blind Gary Davis - I'm the light of this world - 1940
TTITLE7=Blind Gary Davis - Have more faith in Jesus - 1940
TTITLE8=Blind Gary Davis - When the train comes along - 1940
TTITLE9=The Golden Gate Quartet - Massa's in the cold cold ground - 1937
TTITLE10=The Golden Gate Quartet - Golden Gate Gospel train - 1937
TTITLE11=The Golden Gate Quartet - Sweet Adeline - 1938
TTITLE12=The Golden Gate Quartet - Jezebel - 1941
TTITLE13=The Golden Gate Quartet - Pick a bale of cotton - 1940
TTITLE14=Mahalia Jackson - Move on up a little higher - 1947
TTITLE15=Mahalia Jackson - Tired - 1947
TTITLE16=Mahalia Jackson - There's not a friend like Jesus - 1947
TTITLE17=Mahalia Jackson - Amazing Grace - 1947
TTITLE18=Barbecue Bob - When the saints go marching in - 1927
TTITLE19=Blind Willie and Kate McTell - God don't like it - 1935
TTITLE20=Reverend Utah Smith - God's mighty hand - 1944
TTITLE21=Bill Landford and The Landfordaires - Run on for a long time - 1949
TTITLE22=Silver Leaf Quartet Of Norfolk - Oh glory, glory - 1931
TTITLE23=Reverend Johnny Blake and The Sanctified Singers - Warning by the devil
TTITLE23='s fire - 1928
TTITLE24=Seventh Day Adventist's Choir - On Jordan's stormy banks we stand - 1
TTITLE24=926
EXTD=
EXTT0=
EXTT1=
EXTT2=
EXTT3=
EXTT4=
EXTT5=
EXTT6=
EXTT7=
EXTT8=
EXTT9=
EXTT10=
EXTT11=
EXTT12=
EXTT13=
EXTT14=
EXTT15=
EXTT16=
EXTT17=
EXTT18=
EXTT19=
EXTT20=
EXTT21=
EXTT22=
EXTT23=
EXTT24=
PLAYORDER=
